<svg version="1.1" id="Layer_1" xmlns="http://www.w3.org/2000/svg" xmlns:xlink="http://www.w3.org/1999/xlink" x="0px" y="0px"
	 width="100%" viewBox="0 0 269 259" enable-background="new 0 0 269 259" xml:space="preserve">
<path fill="#000000" opacity="1.000000" stroke="none" 
	d="
M221.000000,1.000000 
	C237.313354,1.000000 253.626709,1.000000 269.939331,1.000007 
	C269.938629,87.333351 269.938629,173.666687 269.938629,260.000000 
	C253.563950,260.000000 237.250626,260.000000 220.620483,259.685669 
	C221.149277,258.895935 221.941498,258.237732 222.848587,257.972748 
	C234.670532,254.519226 244.527405,248.086060 252.068741,238.351257 
	C259.228912,229.108429 263.929474,218.876022 263.514160,206.436127 
	C263.549500,155.422913 263.565918,104.806175 263.665680,53.762688 
	C262.685303,48.023426 262.328186,42.435349 260.389496,37.464035 
	C257.594574,30.297108 254.314850,23.100313 247.167389,18.833347 
	C247.141647,18.836157 247.140625,18.887959 247.033508,18.645046 
	C246.542786,18.054327 246.159195,17.706520 245.584717,17.159433 
	C245.119751,16.712942 244.845688,16.465731 244.479309,15.900667 
	C238.810547,11.970418 233.257095,8.321775 227.645996,4.764030 
	C225.498489,3.402391 223.219223,2.248541 221.000000,1.000000 
z"/>
<path fill="#000000" opacity="1.000000" stroke="none" 
	d="
M50.000000,260.000000 
	C33.686699,260.000000 17.373400,260.000000 1.060453,260.000000 
	C1.060806,173.666641 1.060806,87.333313 1.060806,1.000000 
	C17.101969,1.000000 33.082325,1.000000 49.586922,1.271924 
	C50.091064,1.727783 50.070969,1.911719 49.673599,2.129218 
	C43.585499,4.824836 37.874672,7.486892 32.144577,10.152182 
	C32.125313,10.155416 32.097603,10.182959 31.792725,10.212629 
	C30.779432,10.904471 30.071016,11.566643 29.318249,12.271076 
	C29.273897,12.313338 29.191122,12.403678 28.843105,12.404129 
	C27.618620,12.829300 26.605932,13.093237 25.886229,13.702991 
	C15.970960,22.103493 9.712173,32.748291 6.808055,45.362404 
	C6.463231,46.860149 6.837883,48.523544 6.899343,50.307499 
	C6.919655,50.504845 6.889640,50.900482 6.603322,51.162827 
	C5.883801,53.985607 5.077496,56.545330 5.072652,59.106571 
	C4.981509,107.296341 4.965937,155.486298 5.019211,203.676132 
	C5.022278,206.449905 5.747550,209.222870 6.119488,212.390579 
	C10.609750,235.259979 23.597553,250.215805 45.484791,257.365723 
	C47.103920,257.894653 48.500145,259.105957 50.000000,260.000000 
z"/>
<path fill="#002C47" opacity="1.000000" stroke="none" 
	d="
M216.000000,260.000000 
	C161.979111,260.000000 107.958214,260.000000 53.493404,259.647797 
	C53.053036,258.824829 53.056580,258.354095 53.522713,257.901550 
	C68.306320,257.944641 82.627388,258.003174 96.948364,257.987854 
	C136.580338,257.945496 176.212280,257.872314 215.860687,258.176819 
	C215.918091,259.028229 215.959045,259.514099 216.000000,260.000000 
z"/>
<path fill="#022B43" opacity="1.000000" stroke="none" 
	d="
M150.000000,1.000000 
	C172.020889,1.000000 194.041794,1.000000 216.505737,1.348053 
	C216.948471,2.161428 216.948166,2.626749 216.484680,3.090052 
	C164.710587,3.056325 113.399658,3.040587 62.088852,2.953883 
	C58.955612,2.948589 55.823318,2.381200 53.178352,2.056129 
	C60.400364,2.022930 67.137573,2.125160 73.867798,1.953533 
	C78.250450,1.841772 82.622955,1.331657 87.000000,1.000000 
	C90.030594,1.000000 93.061188,1.000000 96.869125,1.268256 
	C106.070274,1.663588 114.494080,1.790664 123.390678,1.951294 
	C132.575653,1.656564 141.287827,1.328282 150.000000,1.000000 
z"/>
<path fill="#092939" opacity="1.000000" stroke="none" 
	d="
M216.399994,260.000000 
	C215.959045,259.514099 215.918091,259.028229 216.214966,258.041229 
	C217.672699,257.228973 218.793427,256.920715 219.912369,256.606262 
	C239.898163,250.989716 253.769897,238.912369 259.937805,218.706345 
	C261.144073,214.754654 262.310486,210.790817 263.495270,206.832581 
	C263.929474,218.876022 259.228912,229.108429 252.068741,238.351257 
	C244.527405,248.086060 234.670532,254.519226 222.848587,257.972748 
	C221.941498,258.237732 221.149277,258.895935 220.151825,259.685669 
	C218.933334,260.000000 217.866653,260.000000 216.399994,260.000000 
z"/>
<path fill="#082A3B" opacity="1.000000" stroke="none" 
	d="
M53.060127,257.883331 
	C53.056580,258.354095 53.053036,258.824829 53.024746,259.647797 
	C52.250000,260.000000 51.500000,260.000000 50.375000,260.000000 
	C48.500145,259.105957 47.103920,257.894653 45.484791,257.365723 
	C23.597553,250.215805 10.609750,235.259979 6.353908,212.389267 
	C6.605551,211.993591 7.074462,211.987289 7.247563,212.297150 
	C8.214689,214.793823 9.061286,216.963181 9.793592,219.170471 
	C12.882478,228.480865 17.694288,236.577682 24.964918,243.391174 
	C33.037045,250.955765 42.996510,254.416718 53.060127,257.883331 
z"/>
<path fill="#072636" opacity="1.000000" stroke="none" 
	d="
M216.947861,3.092070 
	C216.948166,2.626749 216.948471,2.161428 216.974396,1.348053 
	C218.066666,1.000000 219.133347,1.000000 220.600006,1.000000 
	C223.219223,2.248541 225.498489,3.402391 227.645996,4.764030 
	C233.257095,8.321775 238.810547,11.970418 244.166962,15.807129 
	C234.947235,11.718318 225.947540,7.405194 216.947861,3.092070 
z"/>
<path fill="#224660" opacity="1.000000" stroke="none" 
	d="
M86.531342,1.000000 
	C82.622955,1.331657 78.250450,1.841772 73.867798,1.953533 
	C67.137573,2.125160 60.400364,2.022930 53.161713,2.056957 
	C52.657307,2.077003 52.623383,2.091886 52.462566,1.821752 
	C52.201168,1.367746 52.100582,1.183873 52.000000,1.000000 
	C63.354229,1.000000 74.708458,1.000000 86.531342,1.000000 
z"/>
<path fill="#224660" opacity="1.000000" stroke="none" 
	d="
M149.531342,1.000000 
	C141.287827,1.328282 132.575653,1.656564 123.424805,1.723083 
	C122.986145,1.461319 123.000000,1.000000 123.000000,1.000000 
	C131.687561,1.000000 140.375137,1.000000 149.531342,1.000000 
z"/>
<path fill="#526D85" opacity="1.000000" stroke="none" 
	d="
M122.531349,1.000000 
	C123.000000,1.000000 122.986145,1.461319 122.952011,1.689530 
	C114.494080,1.790664 106.070274,1.663588 97.323235,1.268256 
	C105.354233,1.000000 113.708466,1.000000 122.531349,1.000000 
z"/>
<path fill="#022B43" opacity="1.000000" stroke="none" 
	d="
M51.666687,1.000000 
	C52.100582,1.183873 52.201168,1.367746 52.218521,2.039246 
	C51.422176,2.996903 50.709057,3.466931 50.004951,3.630252 
	C50.026268,2.914248 50.038570,2.504951 50.050873,2.095655 
	C50.070969,1.911719 50.091064,1.727783 50.055580,1.271924 
	C50.444458,1.000000 50.888916,1.000000 51.666687,1.000000 
z"/>
<path fill="#01445B" opacity="1.000000" stroke="none" 
	d="
M49.995937,3.936960 
	C50.709057,3.466931 51.422176,2.996903 52.379337,2.309380 
	C52.623383,2.091886 52.657307,2.077003 52.673946,2.076175 
	C55.823318,2.381200 58.955612,2.948589 62.088852,2.953883 
	C113.399658,3.040587 164.710587,3.056325 216.484680,3.090052 
	C225.947540,7.405194 234.947235,11.718318 244.259262,16.124981 
	C244.845688,16.465731 245.119751,16.712942 245.710724,17.383423 
	C246.398636,18.167110 246.769638,18.527534 247.140625,18.887959 
	C247.140625,18.887959 247.141647,18.836157 247.242157,19.171690 
	C255.089996,29.271805 260.606750,40.060192 262.569183,52.501415 
	C262.663971,53.102406 263.233734,53.628475 263.582306,54.189430 
	C263.565918,104.806175 263.549500,155.422913 263.514160,206.436127 
	C262.310486,210.790817 261.144073,214.754654 259.937805,218.706345 
	C253.769897,238.912369 239.898163,250.989716 219.912369,256.606262 
	C218.793427,256.920715 217.672699,257.228973 216.198517,257.675720 
	C176.212280,257.872314 136.580338,257.945496 96.948364,257.987854 
	C82.627388,258.003174 68.306320,257.944641 53.522713,257.901550 
	C42.996510,254.416718 33.037045,250.955765 24.964918,243.391174 
	C17.694288,236.577682 12.882478,228.480865 9.793592,219.170471 
	C9.061286,216.963181 8.214689,214.793823 7.236527,211.925735 
	C7.031053,210.501556 7.009715,209.758652 6.992903,208.545547 
	C7.001386,160.777390 7.022843,113.479416 6.969665,66.181526 
	C6.966144,63.050659 6.394288,59.920429 6.099328,56.538406 
	C6.093835,55.951866 6.075796,55.616817 6.222477,55.075554 
	C6.584692,54.581150 6.782186,54.292973 6.968795,53.616493 
	C6.935154,52.452290 6.912397,51.676384 6.889640,50.900482 
	C6.889640,50.900482 6.919655,50.504845 7.050371,49.955696 
	C10.175566,42.244831 12.492661,34.687977 16.369909,28.041210 
	C19.723587,22.292002 24.848923,17.576254 29.191122,12.403678 
	C29.191122,12.403678 29.273897,12.313338 29.586590,12.170736 
	C30.632055,11.413074 31.364828,10.798017 32.097603,10.182959 
	C32.097603,10.182959 32.125313,10.155416 32.505447,10.093695 
	C38.589035,8.000302 44.292488,5.968631 49.995937,3.936960 
M135.557312,216.028778 
	C135.737091,216.019760 135.916870,216.010757 136.727570,216.111374 
	C137.978378,216.377182 139.229187,216.643005 141.143753,216.737915 
	C141.768341,216.478210 142.392944,216.218506 143.020523,216.014038 
	C143.020523,216.014038 142.972656,215.986328 143.489792,215.995422 
	C143.661896,215.993332 143.833984,215.991257 144.495285,215.796738 
	C144.994217,213.638443 145.914886,211.482422 145.926529,209.321503 
	C146.037582,188.728043 146.210754,168.130188 145.871277,147.541763 
	C145.761749,140.898788 146.586945,135.715393 154.727768,133.880615 
	C157.868668,131.681839 161.009583,129.483078 164.519852,126.741730 
	C165.792557,125.548370 167.065262,124.355011 168.880005,122.819809 
	C178.723984,111.962227 180.315140,99.385315 175.635880,86.057571 
	C170.587799,71.679298 160.456161,62.902702 144.337509,60.704124 
	C141.230392,60.797276 138.123260,60.890427 134.232956,61.030560 
	C128.010941,62.005833 121.787827,62.978806 117.955223,68.951843 
	C117.955223,68.951843 117.919174,68.981758 117.567787,69.232422 
	C117.343597,69.413689 117.138824,69.614738 116.878632,69.859108 
	C116.878632,69.859108 116.800201,69.857384 116.137505,70.027534 
	C111.549995,72.237480 108.665924,75.747787 107.845413,80.890663 
	C107.845413,80.890663 107.799980,80.893944 107.247452,81.266785 
	C101.605614,88.157738 100.289032,101.697762 104.638512,108.599739 
	C104.638512,108.599739 104.615158,109.053139 104.449860,109.609505 
	C104.595772,110.736389 104.741676,111.863266 105.056061,113.700226 
	C109.167870,123.970299 116.031593,131.235703 127.813927,133.978424 
	C129.585754,134.503555 131.357574,135.028687 133.088196,136.555222 
	C133.058121,139.012146 133.179199,141.482071 132.968887,143.923477 
	C132.398193,150.548126 131.687012,157.160690 130.096054,163.838028 
	C125.135162,163.819016 120.174263,163.800018 114.730949,163.454788 
	C114.180428,162.910965 113.629906,162.367126 112.820702,161.480484 
	C112.631432,161.263107 112.416229,161.075455 111.774078,160.618851 
	C111.524719,160.398026 111.275360,160.177216 110.754677,159.588593 
	C110.560104,159.352509 110.339355,159.144150 110.096878,158.918503 
	C110.096878,158.918503 110.102715,158.873642 109.954361,158.177383 
	C109.254135,154.446564 108.051453,150.726913 107.968285,146.982391 
	C107.834572,140.961975 105.530060,137.684448 98.393356,135.825668 
	C92.174522,136.158066 88.649086,138.792694 87.503380,143.963974 
	C86.503296,148.477997 88.658051,152.547546 93.539886,155.304779 
	C95.267410,156.280457 97.025398,157.202225 98.805748,158.168015 
	C98.805748,158.168015 98.826668,158.203430 98.992767,158.775940 
	C99.555931,159.566086 100.119095,160.356232 100.735115,161.204391 
	C100.735115,161.204391 100.786346,161.263824 100.955147,161.917786 
	C104.279404,165.968338 107.603653,170.018875 111.535446,174.526886 
	C113.253639,174.994690 114.958405,175.798645 116.692513,175.867874 
	C122.110840,176.084198 127.540245,176.022949 132.974289,176.993027 
	C132.980789,178.988708 132.943085,180.985703 133.001328,182.979874 
	C133.272461,192.263367 133.570114,201.546097 133.904343,211.688934 
	C133.961258,213.122528 134.018173,214.556107 134.304413,216.062393 
	C134.304413,216.062393 134.664917,216.092239 134.664917,216.092239 
	C134.664917,216.092239 135.021851,216.029892 134.993759,216.009018 
	C134.993759,216.009018 135.017426,216.040726 135.557312,216.028778 
M102.538879,234.382233 
	C103.020271,234.927521 103.501663,235.472809 104.000000,236.000000 
	C104.000000,236.000000 103.982941,236.017487 104.513107,236.523575 
	C108.108978,238.609131 111.587708,238.818008 114.911949,234.955994 
	C114.947266,232.150909 115.100822,229.341385 114.995346,226.541611 
	C114.698563,218.664108 114.295197,210.790649 113.585670,202.895325 
	C113.585670,202.895325 113.237251,202.879898 113.169800,202.247116 
	C113.135361,201.824265 113.100922,201.401428 113.184303,200.428253 
	C113.110054,197.120087 111.302971,195.673126 107.642937,195.749130 
	C107.642937,195.749130 107.168816,195.753906 107.094193,195.360458 
	C107.094193,195.360458 107.003159,194.970657 106.236870,194.666733 
	C103.779961,194.452606 101.324837,194.214844 98.865814,194.028671 
	C90.842415,193.421234 82.817581,192.832611 74.820602,192.149353 
	C74.820602,192.149353 74.898376,192.101059 74.639862,191.711777 
	C74.435173,191.469864 74.189049,191.282333 73.746323,191.259232 
	C73.746323,191.259232 73.556969,191.277191 73.612976,190.596649 
	C73.086609,189.393692 72.560234,188.190750 71.730736,186.657715 
	C71.531715,186.437012 71.338791,186.211105 71.127296,185.567902 
	C71.127296,185.567902 71.071060,185.158905 71.342560,184.423080 
	C71.248489,181.857941 71.154419,179.292801 71.121613,175.882523 
	C71.105469,173.340088 71.089325,170.797653 71.350639,167.489288 
	C71.620079,165.632248 71.889519,163.775223 72.240395,161.568604 
	C72.244217,161.098740 72.248039,160.628860 72.192131,159.339188 
	C71.034904,152.203995 69.615250,151.203613 60.260628,150.931656 
	C53.189499,150.726059 52.265934,149.294388 55.044651,142.829147 
	C59.031986,133.551804 63.023491,124.276253 67.473587,114.494438 
	C70.172012,108.562683 73.313408,102.734322 71.881950,95.464226 
	C71.881950,95.464226 71.866425,95.098488 72.204895,94.430183 
	C72.975525,92.243248 73.899986,90.097206 74.493904,87.863281 
	C84.891472,48.754406 126.436218,27.222536 164.376053,41.568069 
	C171.319046,44.193302 177.798141,48.045429 184.600189,51.478207 
	C184.600189,51.478207 184.751526,51.580902 185.081589,52.081944 
	C186.197403,53.309479 187.215164,54.646484 188.444397,55.747364 
	C199.067719,65.261436 205.654266,77.142578 209.320374,91.648979 
	C211.477493,101.895027 211.990128,112.235458 209.138885,122.340744 
	C206.891922,130.304398 203.643585,137.985519 200.811325,145.849182 
	C200.811325,145.849182 200.760483,145.887802 200.213837,146.249634 
	C195.329025,151.925629 193.238068,158.626068 192.707886,166.766525 
	C192.784851,171.188385 192.861816,175.610245 192.940964,180.920563 
	C193.486526,184.318207 194.032089,187.715836 194.567215,191.818344 
	C194.531265,192.286926 194.495300,192.755508 194.285309,193.912109 
	C194.736374,196.649673 195.187439,199.387222 195.698395,202.763931 
	C195.725128,203.191040 195.751862,203.618164 195.519684,204.804062 
	C196.358047,215.192719 197.196426,225.581390 198.224121,236.528412 
	C200.596069,240.777390 204.284836,238.459381 206.966202,237.633438 
	C210.550659,236.529282 210.094040,233.088043 209.135223,229.114853 
	C208.399277,218.431808 207.663330,207.748749 206.924530,196.171310 
	C205.928802,190.081879 204.933060,183.992447 203.972397,176.989975 
	C204.010651,173.002625 204.048889,169.015274 204.525497,164.497620 
	C206.319504,160.589813 207.700516,156.419647 209.985062,152.823471 
	C216.795013,142.103668 221.258331,130.613998 222.834167,117.052147 
	C222.769287,110.033028 222.704391,103.013901 222.526138,95.225281 
	C221.324265,85.119125 218.156921,75.685699 212.680374,66.339920 
	C211.182083,64.517563 209.683777,62.695213 208.151871,60.874783 
	C208.151871,60.874783 208.150894,60.841137 208.009735,60.205593 
	C207.081528,59.088257 206.153305,57.970921 205.192169,56.836376 
	C205.192169,56.836376 205.168106,56.808086 204.976410,56.198620 
	C204.052994,55.089249 203.129578,53.979877 201.743561,52.510738 
	C201.233627,51.920708 200.723709,51.330681 200.033737,50.087677 
	C195.399658,43.861038 189.714630,39.066792 182.058060,36.927288 
	C182.058060,36.927288 182.050018,36.898689 181.687073,36.354568 
	C179.807251,35.174702 177.927429,33.994835 175.457535,32.456379 
	C173.185303,31.449169 170.989838,30.183565 168.626968,29.481379 
	C160.277802,27.000217 152.063446,23.241383 142.391403,25.867319 
	C141.969574,25.784395 141.547760,25.701469 140.571228,25.238770 
	C134.540421,25.525158 128.380432,25.135794 122.509445,26.258150 
	C113.951752,27.894127 105.536705,30.472481 98.817719,36.777237 
	C98.817719,36.777237 98.732086,36.823090 98.046562,36.963078 
	C95.000061,39.253941 91.953552,41.544800 88.566086,44.226433 
	C88.280785,44.420322 87.995483,44.614216 87.074356,45.017487 
	C85.594765,46.066227 83.920097,46.922470 82.665840,48.193558 
	C70.449905,60.573437 64.029282,75.826042 60.167892,92.544754 
	C58.238152,100.899979 55.428280,109.111557 52.324337,117.119835 
	C48.960369,125.798988 44.587746,134.082031 41.031002,142.693115 
	C37.613342,150.967453 40.997402,159.149582 49.216866,162.421906 
	C52.204079,163.611176 55.692348,163.541916 58.971931,164.975098 
	C59.294083,171.985275 59.616234,178.995438 59.983868,186.804611 
	C61.787476,190.619904 63.591084,194.435181 65.927650,198.606033 
	C66.567940,199.166580 67.208229,199.727112 68.163956,200.863190 
	C72.372025,205.555618 77.931892,206.723480 83.884850,206.997665 
	C90.325371,207.294296 96.760223,207.714081 103.286049,208.842514 
	C103.386391,216.552917 103.486732,224.263336 103.168442,232.394379 
	C102.872574,232.894348 102.576714,233.394318 102.538879,234.382233 
M173.639999,157.645081 
	C173.449799,158.950928 173.097595,160.256332 173.093979,161.562683 
	C173.048096,178.106125 173.025665,194.649765 173.086227,211.193054 
	C173.092133,212.805054 173.688812,214.414886 174.503281,216.278137 
	C175.010376,216.492081 175.517471,216.706024 176.835129,216.965515 
	C178.901199,216.612518 180.967270,216.259521 183.433960,215.939438 
	C183.433960,215.939438 183.836456,215.965210 184.182968,215.216202 
	C184.454819,212.265137 184.758682,209.316620 184.993332,206.362595 
	C186.537323,186.924469 181.252014,167.023788 189.131531,147.373260 
	C189.145172,141.059219 186.313354,137.338440 180.701782,136.297241 
	C175.646744,135.359314 170.414597,138.329086 168.694229,143.112778 
	C166.802673,148.372391 168.708252,153.082855 173.931137,156.123062 
	C173.931137,156.123062 173.866882,156.181152 173.887344,156.511459 
	C173.887344,156.511459 173.921967,156.840576 173.639999,157.645081 
M168.322342,197.360168 
	C168.298111,196.884125 168.273880,196.408066 168.356369,195.356689 
	C167.008057,190.405502 162.757736,187.175476 158.413162,187.800400 
	C154.606079,188.347992 150.869659,192.675735 150.561295,196.894836 
	C150.223755,201.513062 153.234283,204.686905 159.715500,205.936935 
	C160.129898,205.927811 160.544296,205.918671 161.516296,206.005447 
	C166.032516,205.290665 168.659988,202.949524 168.322342,197.360168 
z"/>
<path fill="#072636" opacity="1.000000" stroke="none" 
	d="
M263.665680,53.762688 
	C263.233734,53.628475 262.663971,53.102406 262.569183,52.501415 
	C260.606750,40.060192 255.089996,29.271805 247.267914,19.168880 
	C254.314850,23.100313 257.594574,30.297108 260.389496,37.464035 
	C262.328186,42.435349 262.685303,48.023426 263.665680,53.762688 
z"/>
<path fill="#072636" opacity="1.000000" stroke="none" 
	d="
M247.033508,18.645046 
	C246.769638,18.527534 246.398636,18.167110 245.901627,17.582699 
	C246.159195,17.706520 246.542786,18.054327 247.033508,18.645046 
z"/>
<path fill="#103242" opacity="1.000000" stroke="none" 
	d="
M6.057757,55.281773 
	C6.075796,55.616817 6.093835,55.951866 6.086267,57.029587 
	C6.048483,105.892593 6.023032,154.012939 6.065146,202.133224 
	C6.067154,204.427658 6.666960,206.721588 6.988376,209.015747 
	C7.009715,209.758652 7.031053,210.501556 7.063427,211.615875 
	C7.074462,211.987289 6.605551,211.993591 6.371131,211.994904 
	C5.747550,209.222870 5.022278,206.449905 5.019211,203.676132 
	C4.965937,155.486298 4.981509,107.296341 5.072652,59.106571 
	C5.077496,56.545330 5.883801,53.985607 6.603322,51.162827 
	C6.912397,51.676384 6.935154,52.452290 6.808340,53.822296 
	C6.458431,54.704861 6.258094,54.993317 6.057757,55.281773 
z"/>
<path fill="#092939" opacity="1.000000" stroke="none" 
	d="
M28.843105,12.404129 
	C24.848923,17.576254 19.723587,22.292002 16.369909,28.041210 
	C12.492661,34.687977 10.175566,42.244831 7.030059,49.758347 
	C6.837883,48.523544 6.463231,46.860149 6.808055,45.362404 
	C9.712173,32.748291 15.970960,22.103493 25.886229,13.702991 
	C26.605932,13.093237 27.618620,12.829300 28.843105,12.404129 
z"/>
<path fill="#092939" opacity="1.000000" stroke="none" 
	d="
M50.004951,3.630253 
	C44.292488,5.968631 38.589035,8.000302 32.524715,10.090460 
	C37.874672,7.486892 43.585499,4.824836 49.673599,2.129218 
	C50.038570,2.504951 50.026268,2.914248 50.004951,3.630253 
z"/>
<path fill="#092939" opacity="1.000000" stroke="none" 
	d="
M31.792725,10.212629 
	C31.364828,10.798017 30.632055,11.413074 29.630941,12.128473 
	C30.071016,11.566643 30.779432,10.904471 31.792725,10.212629 
z"/>
<path fill="#000000" opacity="1.000000" stroke="none" 
	d="
M194.459320,193.224091 
	C194.495300,192.755508 194.531265,192.286926 194.676331,191.000351 
	C194.797180,185.153870 194.808929,180.125366 194.813599,174.747009 
	C194.586639,171.956421 194.366745,169.515717 194.355972,166.744232 
	C195.300644,163.069305 195.832016,159.662949 196.826691,156.397720 
	C197.914642,152.826385 199.430893,149.385529 200.760468,145.887802 
	C200.760483,145.887802 200.811325,145.849182 201.139954,145.690994 
	C203.242325,142.769730 205.502823,140.202759 206.708206,137.210709 
	C212.980988,121.640282 215.260071,105.647507 210.742767,88.764542 
	C206.293777,79.778305 202.575302,70.743492 197.360825,62.675568 
	C194.436417,58.150890 189.036240,55.226379 184.751526,51.580902 
	C184.751526,51.580902 184.600189,51.478207 184.501587,51.067741 
	C182.666504,49.152416 181.120544,47.313877 179.163040,46.196102 
	C164.983276,38.099201 149.957581,34.439342 133.396271,35.751919 
	C102.244690,38.220844 78.196037,61.582973 71.746613,90.309547 
	C71.407333,91.820717 71.809456,93.498352 71.866425,95.098488 
	C71.866425,95.098488 71.881950,95.464226 71.572411,95.892265 
	C69.234337,102.542580 67.205803,108.764854 65.010178,115.312317 
	C61.291039,123.691711 57.825768,131.785568 54.167332,139.791153 
	C48.124657,153.014069 52.088230,153.731964 62.867527,153.107788 
	C66.433594,152.901291 69.583977,153.778656 70.140526,158.587402 
	C70.376671,168.430664 70.648415,177.817078 70.974968,187.522278 
	C71.872177,188.986450 72.714569,190.131821 73.556969,191.277191 
	C73.556969,191.277191 73.746323,191.259232 73.961838,191.390289 
	C74.386604,191.753265 74.626945,191.946503 74.898376,192.101059 
	C74.898376,192.101059 74.820602,192.149353 74.944427,192.499405 
	C77.073807,193.858231 79.079353,194.866989 81.546234,195.906876 
	C90.394653,195.876633 98.781738,195.815277 107.168816,195.753906 
	C107.168816,195.753906 107.642937,195.749130 108.066055,196.004608 
	C110.014946,197.832932 111.540710,199.405762 113.066483,200.978577 
	C113.100922,201.401428 113.135361,201.824265 113.134216,203.039764 
	C113.110764,214.209732 113.122887,224.587051 112.801468,235.211456 
	C109.639595,235.644852 106.811264,235.831161 103.982941,236.017487 
	C103.982941,236.017487 104.000000,236.000000 103.971558,235.679306 
	C103.901749,234.920349 103.860382,234.482086 103.830772,233.781586 
	C103.757378,233.004150 103.672226,232.488937 103.587074,231.973740 
	C103.486732,224.263336 103.386391,216.552917 103.287369,208.224976 
	C101.615875,206.732376 99.962029,205.143967 98.267174,205.098923 
	C87.897820,204.823380 77.337425,206.075531 67.848518,200.287659 
	C67.208229,199.727112 66.567940,199.166580 65.719353,198.065323 
	C64.271118,193.350922 63.031178,189.177216 61.814934,184.535553 
	C61.576752,177.382339 61.314873,170.697098 60.945808,163.760727 
	C59.001152,162.980774 57.184570,162.090195 55.322765,161.982697 
	C44.412926,161.352753 38.859043,152.348755 43.356041,142.255417 
	C46.732418,134.677261 50.452164,127.244194 53.602062,119.575264 
	C56.667549,112.111847 59.388126,104.491951 61.923977,96.829506 
	C65.130493,87.140564 66.908157,76.808022 71.329979,67.742149 
	C75.391357,59.415272 82.143509,52.400791 87.710182,44.808105 
	C87.995483,44.614216 88.280785,44.420322 89.080666,43.982155 
	C92.640862,41.432945 95.686470,39.128017 98.732086,36.823090 
	C98.732086,36.823090 98.817719,36.777237 99.215240,36.734001 
	C112.600868,29.814529 126.666878,26.979733 141.125931,25.618544 
	C141.547760,25.701469 141.969574,25.784395 143.014267,26.226107 
	C146.931061,26.962315 150.313110,26.988237 153.501297,27.787466 
	C161.048553,29.679443 168.503738,31.938692 176.235535,34.283279 
	C178.333298,35.310966 180.191650,36.104832 182.050018,36.898689 
	C182.050018,36.898689 182.058060,36.927288 182.244324,37.210320 
	C188.358322,41.909122 194.286041,46.324890 200.213776,50.740654 
	C200.723709,51.330681 201.233627,51.920708 202.000198,53.020588 
	C203.227264,54.622986 204.197678,55.715534 205.168106,56.808086 
	C205.168106,56.808086 205.192169,56.836376 205.250824,57.169960 
	C206.256607,58.616074 207.203751,59.728603 208.150894,60.841137 
	C208.150894,60.841137 208.151871,60.874783 208.209000,61.217594 
	C209.239655,63.374340 210.213165,65.188278 211.289948,67.331207 
	C214.610748,77.100510 217.828308,86.540833 221.029449,96.451401 
	C221.050552,103.952507 221.088058,110.983368 221.063538,118.410904 
	C218.518784,130.662079 214.721054,141.930832 208.140121,152.299271 
	C205.832520,155.934967 205.384369,160.750916 204.087128,165.027924 
	C204.048889,169.015274 204.010651,173.002625 203.737869,177.779099 
	C204.327194,187.776443 205.151047,196.984680 205.981491,206.639938 
	C206.732193,214.730667 207.476303,222.374374 208.165680,230.432571 
	C208.232239,238.056091 202.992645,235.792511 199.098206,235.482376 
	C198.688782,229.071869 198.454498,223.100632 197.853958,217.166428 
	C197.408798,212.767761 196.487686,208.417236 195.778595,204.045273 
	C195.751862,203.618164 195.725128,203.191040 195.756897,202.007339 
	C195.363373,198.575195 194.911346,195.899643 194.459320,193.224091 
z"/>
<path fill="#000000" opacity="1.000000" stroke="none" 
	d="
M140.479996,216.908829 
	C139.229187,216.643005 137.978378,216.377182 136.368591,215.833527 
	C136.009598,215.555695 135.899216,215.116196 135.923401,214.640762 
	C135.973679,202.566620 136.090668,190.966675 135.931793,179.370499 
	C135.906815,177.547241 134.631592,175.741104 133.472992,173.955292 
	C126.371391,173.969345 119.731224,173.955185 112.893341,173.672852 
	C108.725861,169.357742 104.756104,165.310791 100.786346,161.263824 
	C100.786346,161.263824 100.735115,161.204391 100.712479,160.860611 
	C100.068779,159.745697 99.447723,158.974564 98.826668,158.203430 
	C98.826668,158.203430 98.805748,158.168015 98.744659,157.809540 
	C96.997208,156.019455 95.468262,154.324188 93.594910,153.205811 
	C88.023834,149.879990 87.535812,142.360825 92.971016,138.932526 
	C94.730812,137.822525 96.969330,137.471497 99.288734,136.955887 
	C103.647675,139.571869 107.370346,142.661072 105.557320,147.838989 
	C103.636925,153.323563 105.863785,156.322708 110.102715,158.873642 
	C110.102715,158.873642 110.096878,158.918503 110.198738,159.149765 
	C110.487152,159.642441 110.728951,159.834229 111.026001,159.956390 
	C111.275360,160.177216 111.524719,160.398026 112.079376,160.960678 
	C112.566727,161.542160 112.798294,161.715759 113.079384,161.823303 
	C113.629906,162.367126 114.180428,162.910965 115.181152,163.939026 
	C120.473526,164.935959 125.306572,165.577850 130.160736,165.920547 
	C134.048660,166.195023 135.981476,164.169510 135.959274,160.215897 
	C135.922897,153.738159 136.092712,147.256317 135.899170,140.784470 
	C135.849472,139.123016 134.765884,137.492508 133.902863,135.765350 
	C133.475418,135.639877 133.302399,135.596848 133.129395,135.553833 
	C131.357574,135.028687 129.585754,134.503555 127.287338,133.647675 
	C118.208611,128.222473 110.123970,122.652382 106.006622,112.633377 
	C105.500053,111.208389 105.057610,110.130760 104.615158,109.053139 
	C104.615158,109.053139 104.638512,108.599739 104.688171,107.946793 
	C104.543739,103.219368 103.792938,99.074242 104.298805,95.088600 
	C104.908325,90.286285 106.585167,85.619438 107.799980,80.893944 
	C107.799980,80.893944 107.845413,80.890663 108.173523,80.748734 
	C111.267815,77.023659 114.034004,73.440521 116.800201,69.857376 
	C116.800201,69.857384 116.878632,69.859108 117.120949,69.761444 
	C117.619896,69.494598 117.805199,69.267258 117.919174,68.981758 
	C117.919174,68.981758 117.955223,68.951843 118.309425,68.881241 
	C123.481483,66.825012 128.299347,64.839378 133.522400,62.884209 
	C137.601868,62.867119 141.276123,62.819565 145.351517,62.844734 
	C166.543976,66.761040 179.450012,85.223953 175.068848,105.757462 
	C173.787231,111.764122 170.633591,117.371353 168.337967,123.161659 
	C167.065262,124.355011 165.792557,125.548370 163.986115,127.045731 
	C159.961472,129.229034 156.470566,131.108337 152.621216,133.085480 
	C149.494431,134.419617 146.726059,135.655945 143.692688,137.228790 
	C143.350861,144.057281 143.274033,150.549271 143.198883,157.260803 
	C143.200546,157.480362 143.281982,157.911850 143.252655,158.341644 
	C143.229431,160.206406 143.235519,161.641403 143.190674,163.501404 
	C143.169937,165.922699 143.200165,167.918976 143.188263,170.341980 
	C143.180283,172.196075 143.214417,173.623428 143.215637,175.361053 
	C143.215073,176.085068 143.247437,176.498810 143.236023,177.384277 
	C143.204849,183.585114 143.217484,189.314209 143.206299,195.267426 
	C143.182495,195.491531 143.232712,195.939499 143.210358,196.288071 
	C143.192245,197.102219 143.196503,197.567810 143.147522,198.392670 
	C143.141373,199.473724 143.188461,200.195496 143.215500,201.275879 
	C143.208862,202.112961 143.222290,202.591446 143.166840,203.502060 
	C143.129379,206.269882 143.160782,208.605576 143.186035,211.295395 
	C143.206863,212.120758 143.233856,212.592026 143.184082,213.423157 
	C143.062424,214.517471 143.017548,215.251892 142.972656,215.986328 
	C142.972656,215.986328 143.020523,216.014038 142.684967,216.053696 
	C141.726288,216.365189 141.103134,216.637009 140.479996,216.908829 
M122.799469,77.800858 
	C122.799469,77.800858 122.779106,77.811958 122.151489,78.044685 
	C115.198181,82.762108 112.722725,90.036850 112.158691,97.730164 
	C111.173378,111.169754 120.513428,122.874237 133.875793,126.038994 
	C146.809326,129.102188 160.081741,122.662750 165.672394,110.636147 
	C169.304108,102.823593 169.448410,87.622345 160.449585,80.756676 
	C159.225204,79.560936 158.000809,78.365189 156.531479,76.537399 
	C148.140182,68.963966 138.620438,69.714859 128.963226,73.153664 
	C126.653351,73.976181 124.842087,76.198936 122.799469,77.800858 
z"/>
<path fill="#000000" opacity="1.000000" stroke="none" 
	d="
M183.033340,215.906509 
	C180.967270,216.259521 178.901199,216.612518 176.245880,216.574005 
	C175.438034,214.053665 175.036896,211.925461 175.029968,209.795959 
	C174.978592,193.972687 175.046707,178.148941 174.957245,162.326019 
	C174.945663,160.275742 174.247192,158.229340 173.866882,156.181152 
	C173.866882,156.181152 173.931137,156.123062 173.838257,155.737762 
	C172.932083,154.135468 172.024612,152.970123 171.323639,151.691574 
	C169.428833,148.235626 169.347046,144.863693 171.925827,141.623932 
	C174.318176,138.618362 177.357605,137.285889 181.062210,138.392776 
	C185.736130,139.789276 187.853439,143.276779 187.965240,148.324127 
	C186.239441,150.730484 184.663208,152.830383 182.877930,155.166565 
	C182.790359,175.570740 182.911850,195.738617 183.033340,215.906509 
z"/>
<path fill="#092C3D" opacity="1.000000" stroke="none" 
	d="
M87.392273,44.912796 
	C82.143509,52.400791 75.391357,59.415272 71.329979,67.742149 
	C66.908157,76.808022 65.130493,87.140564 61.923977,96.829506 
	C59.388126,104.491951 56.667549,112.111847 53.602062,119.575264 
	C50.452164,127.244194 46.732418,134.677261 43.356041,142.255417 
	C38.859043,152.348755 44.412926,161.352753 55.322765,161.982697 
	C57.184570,162.090195 59.001152,162.980774 60.595825,163.766464 
	C59.886013,164.031174 59.419010,164.039017 58.952003,164.046875 
	C55.692348,163.541916 52.204079,163.611176 49.216866,162.421906 
	C40.997402,159.149582 37.613342,150.967453 41.031002,142.693115 
	C44.587746,134.082031 48.960369,125.798988 52.324337,117.119835 
	C55.428280,109.111557 58.238152,100.899979 60.167892,92.544754 
	C64.029282,75.826042 70.449905,60.573437 82.665840,48.193558 
	C83.920097,46.922470 85.594765,46.066227 87.392273,44.912796 
z"/>
<path fill="#072839" opacity="1.000000" stroke="none" 
	d="
M72.035660,94.764336 
	C71.809456,93.498352 71.407333,91.820717 71.746613,90.309547 
	C78.196037,61.582973 102.244690,38.220844 133.396271,35.751919 
	C149.957581,34.439342 164.983276,38.099201 179.163040,46.196102 
	C181.120544,47.313877 182.666504,49.152416 184.447174,50.994247 
	C177.798141,48.045429 171.319046,44.193302 164.376053,41.568069 
	C126.436218,27.222536 84.891472,48.754406 74.493904,87.863281 
	C73.899986,90.097206 72.975525,92.243248 72.035660,94.764336 
z"/>
<path fill="#000000" opacity="1.000000" stroke="none" 
	d="
M168.249664,195.932022 
	C168.273880,196.408066 168.298111,196.884125 168.068985,197.943298 
	C165.529984,200.987457 163.244354,203.448502 160.958710,205.909546 
	C160.544296,205.918671 160.129898,205.927811 159.183380,205.664566 
	C157.735107,204.702591 156.410126,204.204041 155.981369,203.286636 
	C154.812057,200.784622 153.067245,197.982437 153.383621,195.536255 
	C153.634521,193.596283 156.537872,190.660019 158.364883,190.583344 
	C160.975586,190.473846 163.722519,192.483551 166.316605,193.777939 
	C167.119370,194.178482 167.613983,195.196625 168.249664,195.932022 
z"/>
<path fill="#07293A" opacity="1.000000" stroke="none" 
	d="
M168.608978,122.990738 
	C170.633591,117.371353 173.787231,111.764122 175.068848,105.757462 
	C179.450012,85.223953 166.543976,66.761040 145.354218,62.543068 
	C144.963623,61.765999 144.971436,61.363312 144.979248,60.960629 
	C160.456161,62.902702 170.587799,71.679298 175.635880,86.057571 
	C180.315140,99.385315 178.723984,111.962227 168.608978,122.990738 
z"/>
<path fill="#002B44" opacity="1.000000" stroke="none" 
	d="
M6.992902,208.545547 
	C6.666960,206.721588 6.067154,204.427658 6.065146,202.133224 
	C6.023032,154.012939 6.048483,105.892593 6.073720,57.281082 
	C6.394288,59.920429 6.966144,63.050659 6.969665,66.181526 
	C7.022843,113.479416 7.001386,160.777390 6.992902,208.545547 
z"/>
<path fill="#082A3B" opacity="1.000000" stroke="none" 
	d="
M70.176117,158.130539 
	C69.583977,153.778656 66.433594,152.901291 62.867527,153.107788 
	C52.088230,153.731964 48.124657,153.014069 54.167332,139.791153 
	C57.825768,131.785568 61.291039,123.691711 65.315857,115.314766 
	C66.196815,114.994659 66.605019,114.997292 67.013214,114.999924 
	C63.023491,124.276253 59.031986,133.551804 55.044651,142.829147 
	C52.265934,149.294388 53.189499,150.726059 60.260628,150.931656 
	C69.615250,151.203613 71.034904,152.203995 71.922211,159.740723 
	C71.453621,160.143967 71.254951,160.145676 70.952202,159.892090 
	C70.624123,159.134720 70.400124,158.632629 70.176117,158.130539 
z"/>
<path fill="#082B3F" opacity="1.000000" stroke="none" 
	d="
M210.847717,89.120300 
	C215.260071,105.647507 212.980988,121.640282 206.708206,137.210709 
	C205.502823,140.202759 203.242325,142.769730 201.154297,145.662476 
	C203.643585,137.985519 206.891922,130.304398 209.138885,122.340744 
	C211.990128,112.235458 211.477493,101.895027 209.412079,91.076874 
	C209.951752,90.043282 210.399734,89.581795 210.847717,89.120300 
z"/>
<path fill="#082A3B" opacity="1.000000" stroke="none" 
	d="
M204.306305,164.762772 
	C205.384369,160.750916 205.832520,155.934967 208.140121,152.299271 
	C214.721054,141.930832 218.518784,130.662079 221.330963,118.405243 
	C222.015167,117.996361 222.369934,117.989815 222.724716,117.983276 
	C221.258331,130.613998 216.795013,142.103668 209.985062,152.823471 
	C207.700516,156.419647 206.319504,160.589813 204.306305,164.762772 
z"/>
<path fill="#013147" opacity="1.000000" stroke="none" 
	d="
M143.957703,136.892273 
	C146.726059,135.655945 149.494431,134.419617 152.800323,133.266663 
	C153.573227,133.595993 153.808624,133.841965 154.044006,134.087936 
	C146.586945,135.715393 145.761749,140.898788 145.871277,147.541763 
	C146.210754,168.130188 146.037582,188.728043 145.926529,209.321503 
	C145.914886,211.482422 144.994217,213.638443 144.249603,215.661728 
	C144.003906,215.526718 144.003571,215.063446 144.143585,214.669037 
	C144.521957,212.309341 144.963654,210.344452 144.967453,208.378708 
	C145.009399,186.661102 145.011337,164.943283 144.931427,143.225861 
	C144.923645,141.113495 144.297043,139.003403 143.957703,136.892273 
z"/>
<path fill="#072839" opacity="1.000000" stroke="none" 
	d="
M210.742783,88.764549 
	C210.399734,89.581795 209.951752,90.043282 209.338104,90.674423 
	C205.654266,77.142578 199.067719,65.261436 188.444397,55.747364 
	C187.215164,54.646484 186.197403,53.309479 184.916565,51.831425 
	C189.036240,55.226379 194.436417,58.150890 197.360825,62.675568 
	C202.575302,70.743492 206.293777,79.778305 210.742783,88.764549 
z"/>
<path fill="#052535" opacity="1.000000" stroke="none" 
	d="
M134.157272,135.847778 
	C134.765884,137.492508 135.849472,139.123016 135.899170,140.784470 
	C136.092712,147.256317 135.922897,153.738159 135.959274,160.215897 
	C135.981476,164.169510 134.048660,166.195023 130.160736,165.920547 
	C125.306572,165.577850 120.473526,164.935959 115.422363,164.102142 
	C120.174263,163.800018 125.135162,163.819016 130.898071,163.695038 
	C132.442764,161.701477 133.747635,159.875198 133.828903,157.996017 
	C134.147766,150.622330 134.080887,143.231949 134.157272,135.847778 
z"/>
<path fill="#092C3D" opacity="1.000000" stroke="none" 
	d="
M140.848572,25.428658 
	C126.666878,26.979733 112.600868,29.814529 99.249908,36.699989 
	C105.536705,30.472481 113.951752,27.894127 122.509445,26.258150 
	C128.380432,25.135794 134.540421,25.525158 140.848572,25.428658 
z"/>
<path fill="#092E3D" opacity="1.000000" stroke="none" 
	d="
M188.114807,148.017670 
	C187.853439,143.276779 185.736130,139.789276 181.062210,138.392776 
	C177.357605,137.285889 174.318176,138.618362 171.925827,141.623932 
	C169.347046,144.863693 169.428833,148.235626 171.323639,151.691574 
	C172.024612,152.970123 172.932083,154.135468 173.833954,155.694672 
	C168.708252,153.082855 166.802673,148.372391 168.694229,143.112778 
	C170.414597,138.329086 175.646744,135.359314 180.701782,136.297241 
	C186.313354,137.338440 189.145172,141.059219 188.832199,147.691650 
	C188.532867,148.010025 188.114807,148.017670 188.114807,148.017670 
z"/>
<path fill="#062031" opacity="1.000000" stroke="none" 
	d="
M133.934448,173.927048 
	C134.631592,175.741104 135.906815,177.547241 135.931793,179.370499 
	C136.090668,190.966675 135.973679,202.566620 135.765350,214.783279 
	C135.376907,215.598770 135.188339,215.811935 135.017426,216.040726 
	C135.017426,216.040726 134.993759,216.009018 134.771088,216.009857 
	C134.548401,216.010696 134.075089,215.989700 134.075089,215.989700 
	C134.018173,214.556107 133.961258,213.122528 133.910675,210.808289 
	C133.891556,198.662109 133.866074,187.396606 133.854584,175.763519 
	C133.890533,174.906311 133.912491,174.416672 133.934448,173.927048 
z"/>
<path fill="#07293A" opacity="1.000000" stroke="none" 
	d="
M168.303009,195.644348 
	C167.613983,195.196625 167.119370,194.178482 166.316605,193.777939 
	C163.722519,192.483551 160.975586,190.473846 158.364883,190.583344 
	C156.537872,190.660019 153.634521,193.596283 153.383621,195.536255 
	C153.067245,197.982437 154.812057,200.784622 155.981369,203.286636 
	C156.410126,204.204041 157.735107,204.702591 158.873169,205.641876 
	C153.234283,204.686905 150.223755,201.513062 150.561295,196.894836 
	C150.869659,192.675735 154.606079,188.347992 158.413162,187.800400 
	C162.757736,187.175476 167.008057,190.405502 168.303009,195.644348 
z"/>
<path fill="#022C3F" opacity="1.000000" stroke="none" 
	d="
M187.965240,148.324127 
	C188.114807,148.017670 188.532867,148.010025 188.741425,148.006119 
	C181.252014,167.023788 186.537323,186.924469 184.993332,206.362595 
	C184.758682,209.316620 184.454819,212.265137 184.040268,215.126709 
	C183.938599,197.124893 184.011124,179.212524 183.978897,161.300354 
	C183.975067,159.176468 183.398209,157.053604 183.086975,154.930267 
	C184.663208,152.830383 186.239441,150.730484 187.965240,148.324127 
z"/>
<path fill="#092639" opacity="1.000000" stroke="none" 
	d="
M68.006241,200.575424 
	C77.337425,206.075531 87.897820,204.823380 98.267174,205.098923 
	C99.962029,205.143967 101.615875,206.732376 103.243118,207.843811 
	C96.760223,207.714081 90.325371,207.294296 83.884850,206.997665 
	C77.931892,206.723480 72.372025,205.555618 68.006241,200.575424 
z"/>
<path fill="#092C3D" opacity="1.000000" stroke="none" 
	d="
M175.996155,34.049458 
	C168.503738,31.938692 161.048553,29.679443 153.501297,27.787466 
	C150.313110,26.988237 146.931061,26.962315 143.317902,26.334663 
	C152.063446,23.241383 160.277802,27.000217 168.626968,29.481379 
	C170.989838,30.183565 173.185303,31.449169 175.738739,32.944923 
	C176.012024,33.638798 176.004089,33.844128 175.996155,34.049458 
z"/>
<path fill="#082B3F" opacity="1.000000" stroke="none" 
	d="
M195.649139,204.424667 
	C196.487686,208.417236 197.408798,212.767761 197.853958,217.166428 
	C198.454498,223.100632 198.688782,229.071869 198.827835,235.489990 
	C198.395218,235.958527 198.215012,235.964294 198.034805,235.970047 
	C197.196426,225.581390 196.358047,215.192719 195.649139,204.424667 
z"/>
<path fill="#072839" opacity="1.000000" stroke="none" 
	d="
M98.988861,136.773285 
	C96.969330,137.471497 94.730812,137.822525 92.971016,138.932526 
	C87.535812,142.360825 88.023834,149.879990 93.594910,153.205811 
	C95.468262,154.324188 96.997208,156.019455 98.726524,157.799835 
	C97.025398,157.202225 95.267410,156.280457 93.539886,155.304779 
	C88.658051,152.547546 86.503296,148.477997 87.503380,143.963974 
	C88.649086,138.792694 92.174522,136.158066 98.699112,136.093292 
	C99.004875,136.360931 98.988861,136.773285 98.988861,136.773285 
z"/>
<path fill="#1C3E4F" opacity="1.000000" stroke="none" 
	d="
M182.877930,155.166565 
	C183.398209,157.053604 183.975067,159.176468 183.978897,161.300354 
	C184.011124,179.212524 183.938599,197.124893 183.867004,215.501205 
	C183.836456,215.965210 183.433960,215.939438 183.233643,215.922974 
	C182.911850,195.738617 182.790359,175.570740 182.877930,155.166565 
z"/>
<path fill="#093649" opacity="1.000000" stroke="none" 
	d="
M58.961967,164.510986 
	C59.419010,164.039017 59.886013,164.031174 60.703007,164.017593 
	C61.314873,170.697098 61.576752,177.382339 61.585300,184.662781 
	C60.867439,185.507202 60.402908,185.756409 59.938385,186.005615 
	C59.616234,178.995438 59.294083,171.985275 58.961967,164.510986 
z"/>
<path fill="#1D4151" opacity="1.000000" stroke="none" 
	d="
M173.877121,156.346313 
	C174.247192,158.229340 174.945663,160.275742 174.957245,162.326019 
	C175.046707,178.148941 174.978592,193.972687 175.029968,209.795959 
	C175.036896,211.925461 175.438034,214.053665 175.840591,216.551208 
	C175.517471,216.706024 175.010376,216.492081 174.263748,215.680603 
	C173.990128,195.668900 173.956039,176.254730 173.921967,156.840576 
	C173.921967,156.840576 173.887344,156.511459 173.877121,156.346313 
z"/>
<path fill="#052535" opacity="1.000000" stroke="none" 
	d="
M106.070740,112.980743 
	C110.123970,122.652382 118.208611,128.222473 126.935440,133.608078 
	C116.031593,131.235703 109.167870,123.970299 105.268066,113.343338 
	C105.676971,112.984535 105.873856,112.982635 106.070740,112.980743 
z"/>
<path fill="#092939" opacity="1.000000" stroke="none" 
	d="
M221.045853,95.981148 
	C217.828308,86.540833 214.610748,77.100510 211.569061,67.328102 
	C212.116287,66.991180 212.487656,66.986351 212.859009,66.981514 
	C218.156921,75.685699 221.324265,85.119125 222.320221,95.609116 
	C221.758148,95.989021 221.402008,95.985085 221.045853,95.981148 
z"/>
<path fill="#022C3F" opacity="1.000000" stroke="none" 
	d="
M173.780975,157.242828 
	C173.956039,176.254730 173.990128,195.668900 174.017731,215.554382 
	C173.688812,214.414886 173.092133,212.805054 173.086227,211.193054 
	C173.025665,194.649765 173.048096,178.106125 173.093979,161.562683 
	C173.097595,160.256332 173.449799,158.950928 173.780975,157.242828 
z"/>
<path fill="#092C3D" opacity="1.000000" stroke="none" 
	d="
M107.523712,81.080368 
	C106.585167,85.619438 104.908325,90.286285 104.298805,95.088600 
	C103.792938,99.074242 104.543739,103.219368 104.685837,107.719803 
	C100.289032,101.697762 101.605614,88.157738 107.523712,81.080368 
z"/>
<path fill="#052535" opacity="1.000000" stroke="none" 
	d="
M99.288727,136.955872 
	C98.988861,136.773285 99.004875,136.360931 99.013618,136.154572 
	C105.530060,137.684448 107.834572,140.961975 107.968285,146.982391 
	C108.051453,150.726913 109.254135,154.446564 110.028534,158.525513 
	C105.863785,156.322708 103.636925,153.323563 105.557320,147.838989 
	C107.370346,142.661072 103.647675,139.571869 99.288727,136.955872 
z"/>
<path fill="#022C3F" opacity="1.000000" stroke="none" 
	d="
M208.220413,230.018066 
	C207.476303,222.374374 206.732193,214.730667 205.987244,206.193512 
	C206.300049,202.555283 206.613708,199.810486 206.927368,197.065704 
	C207.663330,207.748749 208.399277,218.431808 208.911331,229.572021 
	C208.687439,230.029190 208.220413,230.018066 208.220413,230.018066 
z"/>
<path fill="#103242" opacity="1.000000" stroke="none" 
	d="
M206.925949,196.618500 
	C206.613708,199.810486 206.300049,202.555283 205.980652,205.746490 
	C205.151047,196.984680 204.327194,187.776443 203.720337,178.235626 
	C204.933060,183.992447 205.928802,190.081879 206.925949,196.618500 
z"/>
<path fill="#092E3D" opacity="1.000000" stroke="none" 
	d="
M67.243401,114.747177 
	C66.605019,114.997292 66.196815,114.994659 65.482941,114.989578 
	C67.205803,108.764854 69.234337,102.542580 71.546761,96.073486 
	C73.313408,102.734322 70.172012,108.562683 67.243401,114.747177 
z"/>
<path fill="#072636" opacity="1.000000" stroke="none" 
	d="
M200.123749,50.414169 
	C194.286041,46.324890 188.358322,41.909122 182.258789,37.206848 
	C189.714630,39.066792 195.399658,43.861038 200.123749,50.414169 
z"/>
<path fill="#0B3143" opacity="1.000000" stroke="none" 
	d="
M133.472992,173.955292 
	C133.912491,174.416672 133.890533,174.906311 133.636261,175.743713 
	C133.403946,176.091492 132.965363,176.069260 132.965363,176.069260 
	C127.540245,176.022949 122.110840,176.084198 116.692513,175.867874 
	C114.958405,175.798645 113.253639,174.994690 111.592751,174.277313 
	C112.130394,173.998825 112.610725,173.969910 113.091064,173.941010 
	C119.731224,173.955185 126.371391,173.969345 133.472992,173.955292 
z"/>
<path fill="#042739" opacity="1.000000" stroke="none" 
	d="
M221.029449,96.451401 
	C221.402008,95.985085 221.758148,95.989021 222.376892,95.993866 
	C222.704391,103.013901 222.769287,110.033028 222.779449,117.517715 
	C222.369934,117.989815 222.015167,117.996361 221.392975,118.008560 
	C221.088058,110.983368 221.050552,103.952507 221.029449,96.451401 
z"/>
<path fill="#082B3F" opacity="1.000000" stroke="none" 
	d="
M200.487152,146.068726 
	C199.430893,149.385529 197.914642,152.826385 196.826691,156.397720 
	C195.832016,159.662949 195.300644,163.069305 194.160156,166.564789 
	C193.494614,166.476105 193.233978,166.236115 192.973343,165.996124 
	C193.238068,158.626068 195.329025,151.925629 200.487152,146.068726 
z"/>
<path fill="#093649" opacity="1.000000" stroke="none" 
	d="
M208.165680,230.432571 
	C208.220413,230.018066 208.687439,230.029190 208.922211,230.036133 
	C210.094040,233.088043 210.550659,236.529282 206.966202,237.633438 
	C204.284836,238.459381 200.596069,240.777390 198.129456,236.249237 
	C198.215012,235.964294 198.395218,235.958527 198.845795,235.945160 
	C202.992645,235.792511 208.232239,238.056091 208.165680,230.432571 
z"/>
<path fill="#042739" opacity="1.000000" stroke="none" 
	d="
M81.084900,195.875763 
	C79.079353,194.866989 77.073807,193.858231 74.930786,192.543091 
	C82.817581,192.832611 90.842415,193.421234 98.865814,194.028671 
	C101.324837,194.214844 103.779961,194.452606 106.151115,194.823730 
	C97.738541,195.279068 89.411720,195.577408 81.084900,195.875763 
z"/>
<path fill="#0F465C" opacity="1.000000" stroke="none" 
	d="
M132.969818,176.531143 
	C132.965363,176.069260 133.403946,176.091492 133.622269,176.111298 
	C133.866074,187.396606 133.891556,198.662109 133.887650,210.378357 
	C133.570114,201.546097 133.272461,192.263367 133.001328,182.979874 
	C132.943085,180.985703 132.980789,178.988708 132.969818,176.531143 
z"/>
<path fill="#072839" opacity="1.000000" stroke="none" 
	d="
M112.893341,173.672852 
	C112.610725,173.969910 112.130394,173.998825 111.288979,174.048584 
	C107.603653,170.018875 104.279404,165.968338 100.870743,161.590805 
	C104.756104,165.310791 108.725861,169.357742 112.893341,173.672852 
z"/>
<path fill="#092C3D" opacity="1.000000" stroke="none" 
	d="
M133.117203,62.853741 
	C128.299347,64.839378 123.481483,66.825012 118.312973,68.858093 
	C121.787827,62.978806 128.010941,62.005833 134.436432,61.197411 
	C134.132339,61.860756 133.624771,62.357246 133.117203,62.853741 
z"/>
<path fill="#022B43" opacity="1.000000" stroke="none" 
	d="
M113.933846,202.915588 
	C114.295197,210.790649 114.698563,218.664108 114.995346,226.541611 
	C115.100822,229.341385 114.947266,232.150909 114.738411,235.270737 
	C114.359924,235.386795 114.155540,235.187531 113.958076,234.519836 
	C113.954231,223.673172 113.944038,213.294388 113.933846,202.915588 
z"/>
<path fill="#0F465C" opacity="1.000000" stroke="none" 
	d="
M133.902863,135.765350 
	C134.080887,143.231949 134.147766,150.622330 133.828903,157.996017 
	C133.747635,159.875198 132.442764,161.701477 131.365814,163.665054 
	C131.687012,157.160690 132.398193,150.548126 132.968887,143.923477 
	C133.179199,141.482071 133.058121,139.012146 133.108795,136.054535 
	C133.302399,135.596848 133.475418,135.639877 133.902863,135.765350 
z"/>
<path fill="#133A4C" opacity="1.000000" stroke="none" 
	d="
M113.759758,202.905457 
	C113.944038,213.294388 113.954231,223.673172 113.754135,234.514740 
	C113.543854,234.977524 113.135017,234.964355 113.135017,234.964355 
	C113.122887,224.587051 113.110764,214.209732 113.167938,203.356171 
	C113.237251,202.879898 113.585670,202.895325 113.759758,202.905457 
z"/>
<path fill="#02384F" opacity="1.000000" stroke="none" 
	d="
M192.840607,166.381317 
	C193.233978,166.236115 193.494614,166.476105 193.951050,166.895554 
	C194.366745,169.515717 194.586639,171.956421 194.697266,175.050293 
	C194.038254,177.146347 193.488525,178.589233 192.938797,180.032104 
	C192.861816,175.610245 192.784851,171.188385 192.840607,166.381317 
z"/>
<path fill="#093649" opacity="1.000000" stroke="none" 
	d="
M133.522400,62.884209 
	C133.624771,62.357246 134.132339,61.860756 134.828018,61.173920 
	C138.123260,60.890427 141.230392,60.797276 144.658386,60.832375 
	C144.971436,61.363312 144.963623,61.765999 144.953094,62.470348 
	C141.276123,62.819565 137.601868,62.867119 133.522400,62.884209 
z"/>
<path fill="#15323B" opacity="1.000000" stroke="none" 
	d="
M70.140526,158.587402 
	C70.400124,158.632629 70.624123,159.134720 70.950974,160.177383 
	C71.051399,161.100296 71.048973,161.482620 71.039314,162.315445 
	C71.045776,164.595688 71.059479,166.425461 71.073181,168.255219 
	C71.089325,170.797653 71.105469,173.340088 71.078979,176.783630 
	C71.047920,180.176117 71.059486,182.667511 71.071060,185.158905 
	C71.071060,185.158905 71.127296,185.567902 71.124451,186.024628 
	C71.112823,186.648911 71.104050,186.816452 71.049965,187.037659 
	C71.004662,187.091324 70.920151,187.203476 70.920151,187.203476 
	C70.648415,177.817078 70.376671,168.430664 70.140526,158.587402 
z"/>
<path fill="#092C3D" opacity="1.000000" stroke="none" 
	d="
M116.468849,69.942459 
	C114.034004,73.440521 111.267815,77.023659 108.187180,80.730507 
	C108.665924,75.747787 111.549995,72.237480 116.468849,69.942459 
z"/>
<path fill="#082B3F" opacity="1.000000" stroke="none" 
	d="
M192.939880,180.476334 
	C193.488525,178.589233 194.038254,177.146347 194.704330,175.400177 
	C194.808929,180.125366 194.797180,185.153870 194.681549,190.647919 
	C194.032089,187.715836 193.486526,184.318207 192.939880,180.476334 
z"/>
<path fill="#15323B" opacity="1.000000" stroke="none" 
	d="
M81.546234,195.906891 
	C89.411720,195.577408 97.738541,195.279068 106.534256,194.975693 
	C107.003159,194.970657 107.094193,195.360458 107.131500,195.557190 
	C98.781738,195.815277 90.394653,195.876633 81.546234,195.906891 
z"/>
<path fill="#092639" opacity="1.000000" stroke="none" 
	d="
M59.961124,186.405121 
	C60.402908,185.756409 60.867439,185.507202 61.561604,185.130768 
	C63.031178,189.177216 64.271118,193.350922 65.452873,197.887543 
	C63.591084,194.435181 61.787476,190.619904 59.961124,186.405121 
z"/>
<path fill="#07293A" opacity="1.000000" stroke="none" 
	d="
M161.237503,205.957489 
	C163.244354,203.448502 165.529984,200.987457 168.080399,198.300629 
	C168.659988,202.949524 166.032516,205.290665 161.237503,205.957489 
z"/>
<path fill="#0B3143" opacity="1.000000" stroke="none" 
	d="
M112.801468,235.211456 
	C113.135017,234.964355 113.543854,234.977524 113.747787,234.982605 
	C114.155540,235.187531 114.359924,235.386795 114.717361,235.731323 
	C111.587708,238.818008 108.108978,238.609131 104.248024,236.270538 
	C106.811264,235.831161 109.639595,235.644852 112.801468,235.211456 
z"/>
<path fill="#07293A" opacity="1.000000" stroke="none" 
	d="
M154.385895,133.984283 
	C153.808624,133.841965 153.573227,133.595993 153.158737,133.168839 
	C156.470566,131.108337 159.961472,129.229034 163.801437,127.317017 
	C161.009583,129.483078 157.868668,131.681839 154.385895,133.984283 
z"/>
<path fill="#092C3D" opacity="1.000000" stroke="none" 
	d="
M98.389328,36.893082 
	C95.686470,39.128017 92.640862,41.432945 89.251144,43.786766 
	C91.953552,41.544800 95.000061,39.253941 98.389328,36.893082 
z"/>
<path fill="#082B3F" opacity="1.000000" stroke="none" 
	d="
M194.372314,193.568100 
	C194.911346,195.899643 195.363373,198.575195 195.726959,201.687775 
	C195.187439,199.387222 194.736374,196.649673 194.372314,193.568100 
z"/>
<path fill="#022B43" opacity="1.000000" stroke="none" 
	d="
M113.125389,200.703415 
	C111.540710,199.405762 110.014946,197.832932 108.302277,195.984528 
	C111.302971,195.673126 113.110054,197.120087 113.125389,200.703415 
z"/>
<path fill="#072636" opacity="1.000000" stroke="none" 
	d="
M212.769684,66.660721 
	C212.487656,66.986351 212.116287,66.991180 211.465805,66.999115 
	C210.213165,65.188278 209.239655,63.374340 208.225800,61.216633 
	C209.683777,62.695213 211.182083,64.517563 212.769684,66.660721 
z"/>
<path fill="#072636" opacity="1.000000" stroke="none" 
	d="
M176.235535,34.283279 
	C176.004089,33.844128 176.012024,33.638798 176.033783,33.124218 
	C177.927429,33.994835 179.807251,35.174702 181.868546,36.626633 
	C180.191650,36.104832 178.333298,35.310966 176.235535,34.283279 
z"/>
<path fill="#042739" opacity="1.000000" stroke="none" 
	d="
M73.584976,190.936920 
	C72.714569,190.131821 71.872177,188.986450 70.974960,187.522278 
	C70.920151,187.203476 71.004662,187.091324 71.284019,187.041138 
	C71.563377,186.990952 72.033859,186.987793 72.033859,186.987793 
	C72.560234,188.190750 73.086609,189.393692 73.584976,190.936920 
z"/>
<path fill="#082A3B" opacity="1.000000" stroke="none" 
	d="
M71.206810,184.790985 
	C71.059486,182.667511 71.047920,180.176117 71.048355,177.206192 
	C71.154419,179.292801 71.248489,181.857941 71.206810,184.790985 
z"/>
<path fill="#072636" opacity="1.000000" stroke="none" 
	d="
M208.080322,60.523365 
	C207.203751,59.728603 206.256607,58.616074 205.267273,57.178566 
	C206.153305,57.970921 207.081528,59.088257 208.080322,60.523365 
z"/>
<path fill="#072636" opacity="1.000000" stroke="none" 
	d="
M205.072266,56.503353 
	C204.197678,55.715534 203.227264,54.622986 202.231506,53.200470 
	C203.129578,53.979877 204.052994,55.089249 205.072266,56.503353 
z"/>
<path fill="#092C3D" opacity="1.000000" stroke="none" 
	d="
M106.006622,112.633377 
	C105.873856,112.982635 105.676971,112.984535 105.183838,112.988297 
	C104.741676,111.863266 104.595772,110.736389 104.532509,109.331322 
	C105.057610,110.130760 105.500053,111.208389 106.006622,112.633377 
z"/>
<path fill="#082A3B" opacity="1.000000" stroke="none" 
	d="
M71.211906,167.872253 
	C71.059479,166.425461 71.045776,164.595688 71.317032,162.331909 
	C71.787643,161.904648 71.973297,161.911407 72.158951,161.918182 
	C71.889519,163.775223 71.620079,165.632248 71.211906,167.872253 
z"/>
<path fill="#072839" opacity="1.000000" stroke="none" 
	d="
M98.909714,158.489685 
	C99.447723,158.974564 100.068779,159.745697 100.686050,160.831604 
	C100.119095,160.356232 99.555931,159.566086 98.909714,158.489685 
z"/>
<path fill="#02384F" opacity="1.000000" stroke="none" 
	d="
M72.199677,161.743393 
	C71.973297,161.911407 71.787643,161.904648 71.324265,161.881439 
	C71.048973,161.482620 71.051399,161.100296 71.055046,160.432678 
	C71.254951,160.145676 71.453621,160.143967 71.952087,160.150635 
	C72.248039,160.628860 72.244217,161.098740 72.199677,161.743393 
z"/>
<path fill="#0B3143" opacity="1.000000" stroke="none" 
	d="
M103.819016,234.043823 
	C103.860382,234.482086 103.901749,234.920349 103.963089,235.688354 
	C103.501663,235.472809 103.020271,234.927521 102.663536,234.164001 
	C103.131798,233.978455 103.475410,234.011139 103.819016,234.043823 
z"/>
<path fill="#092639" opacity="1.000000" stroke="none" 
	d="
M103.830772,233.781586 
	C103.475410,234.011139 103.131798,233.978455 102.534515,233.920029 
	C102.576714,233.394318 102.872574,232.894348 103.377762,232.184052 
	C103.672226,232.488937 103.757378,233.004150 103.830772,233.781586 
z"/>
<path fill="#143645" opacity="1.000000" stroke="none" 
	d="
M144.003571,215.063446 
	C144.003571,215.063446 144.003906,215.526718 144.005005,215.757935 
	C143.833984,215.991257 143.661896,215.993332 143.231232,215.990875 
	C143.017548,215.251892 143.062424,214.517471 143.287933,213.668320 
	C143.646896,214.056885 143.825226,214.560165 144.003571,215.063446 
z"/>
<path fill="#143645" opacity="1.000000" stroke="none" 
	d="
M140.811874,216.823364 
	C141.103134,216.637009 141.726288,216.365189 142.683472,216.026077 
	C142.392944,216.218506 141.768341,216.478210 140.811874,216.823364 
z"/>
<path fill="#052535" opacity="1.000000" stroke="none" 
	d="
M110.890335,159.772491 
	C110.728951,159.834229 110.487152,159.642441 110.196518,159.172272 
	C110.339355,159.144150 110.560104,159.352509 110.890335,159.772491 
z"/>
<path fill="#052535" opacity="1.000000" stroke="none" 
	d="
M112.950043,161.651886 
	C112.798294,161.715759 112.566727,161.542160 112.279892,161.110016 
	C112.416229,161.075455 112.631432,161.263107 112.950043,161.651886 
z"/>
<path fill="#143645" opacity="1.000000" stroke="none" 
	d="
M134.189758,216.026047 
	C134.075089,215.989700 134.548401,216.010696 134.785126,216.020294 
	C135.021851,216.029892 134.664917,216.092239 134.664917,216.092239 
	C134.664917,216.092239 134.304413,216.062393 134.189758,216.026047 
z"/>
<path fill="#143645" opacity="1.000000" stroke="none" 
	d="
M135.287369,216.034760 
	C135.188339,215.811935 135.376907,215.598770 135.741180,215.258713 
	C135.899216,215.116196 136.009598,215.555695 136.053116,215.778717 
	C135.916870,216.010757 135.737091,216.019760 135.287369,216.034760 
z"/>
<path fill="#002B44" opacity="1.000000" stroke="none" 
	d="
M6.222477,55.075554 
	C6.258094,54.993317 6.458431,54.704861 6.819223,54.210594 
	C6.782186,54.292973 6.584692,54.581150 6.222477,55.075554 
z"/>
<path fill="#092C3D" opacity="1.000000" stroke="none" 
	d="
M117.743484,69.107086 
	C117.805199,69.267258 117.619896,69.494598 117.158363,69.749664 
	C117.138824,69.614738 117.343597,69.413689 117.743484,69.107086 
z"/>
<path fill="#082A3B" opacity="1.000000" stroke="none" 
	d="
M71.882294,186.822754 
	C72.033859,186.987793 71.563377,186.990952 71.329323,186.987488 
	C71.104050,186.816452 71.112823,186.648911 71.136780,186.230682 
	C71.338791,186.211105 71.531715,186.437012 71.882294,186.822754 
z"/>
<path fill="#042739" opacity="1.000000" stroke="none" 
	d="
M74.769119,191.906418 
	C74.626945,191.946503 74.386604,191.753265 74.039413,191.335266 
	C74.189049,191.282333 74.435173,191.469864 74.769119,191.906418 
z"/>
<path fill="#03435A" opacity="1.000000" stroke="none" 
	d="
M156.776428,77.169441 
	C158.000809,78.365189 159.225204,79.560936 160.697861,81.374390 
	C161.750336,83.813080 162.571823,85.626648 163.355927,87.456245 
	C168.932922,100.469498 165.257401,113.410141 153.907089,120.751190 
	C142.937958,127.845711 129.615158,125.762352 120.125603,115.468620 
	C111.954002,106.604546 112.061455,92.850037 120.318985,82.059235 
	C121.305115,80.770576 121.966949,79.233749 122.779106,77.811958 
	C122.779106,77.811958 122.799469,77.800858 123.161362,77.715622 
	C130.067307,74.786026 136.623550,71.601776 144.023376,73.194778 
	C148.358704,74.128067 152.530869,75.819206 156.776428,77.169441 
M143.338379,86.276993 
	C142.754166,87.625069 142.169937,88.973145 141.546936,90.469963 
	C141.546936,90.469963 141.419327,90.555672 140.767715,90.404427 
	C139.277054,89.356255 137.716766,88.392632 136.314316,87.237373 
	C134.748001,85.947166 133.324997,84.483009 131.168610,83.063858 
	C130.064728,83.683678 128.960861,84.303497 127.529686,85.299019 
	C127.971924,86.556091 128.414169,87.813171 128.892014,89.082451 
	C128.892014,89.082451 128.909210,89.115929 129.004196,89.820656 
	C129.618805,92.761688 130.233414,95.702713 130.323425,99.135551 
	C128.714310,101.215157 128.653259,102.768417 131.747910,103.158691 
	C133.055130,103.323555 134.376099,103.379623 135.553207,103.990349 
	C135.040298,104.679909 134.527390,105.369469 133.307419,106.166267 
	C132.062851,107.294502 130.818268,108.422729 129.573700,109.550964 
	C130.606689,110.687195 131.608673,111.853630 132.679779,112.952721 
	C134.362259,114.679176 136.091324,116.360237 138.346588,118.524422 
	C139.579636,117.490089 140.875488,116.520439 142.027267,115.402390 
	C143.081512,114.379013 143.808502,112.937462 144.992172,112.149727 
	C146.362595,111.237732 148.074326,110.838623 149.637878,110.216843 
	C148.651398,108.558662 147.664917,106.900490 147.263519,106.225777 
	C147.973892,103.339752 148.525543,101.098549 148.970047,98.170143 
	C148.688980,96.814476 148.407913,95.458817 148.034943,94.038635 
	C148.034943,94.038635 148.134430,94.087852 148.716400,93.789330 
	C150.141541,91.178879 151.566696,88.568428 152.720612,85.353516 
	C150.860748,84.289406 149.000900,83.225288 146.606537,82.186241 
	C145.706848,83.427872 144.807159,84.669502 143.938324,85.966087 
	C143.938324,85.966087 143.885834,85.930626 143.338379,86.276993 
z"/>
<path fill="#082A3B" opacity="1.000000" stroke="none" 
	d="
M122.465302,77.928322 
	C121.966949,79.233749 121.305115,80.770576 120.318985,82.059235 
	C112.061455,92.850037 111.954002,106.604546 120.125603,115.468620 
	C129.615158,125.762352 142.937958,127.845711 153.907089,120.751190 
	C165.257401,113.410141 168.932922,100.469498 163.355927,87.456245 
	C162.571823,85.626648 161.750336,83.813080 160.864944,81.650040 
	C169.448410,87.622345 169.304108,102.823593 165.672394,110.636147 
	C160.081741,122.662750 146.809326,129.102188 133.875793,126.038994 
	C120.513428,122.874237 111.173378,111.169754 112.158691,97.730164 
	C112.722725,90.036850 115.198181,82.762108 122.465302,77.928322 
z"/>
<path fill="#113F57" opacity="1.000000" stroke="none" 
	d="
M144.143585,214.669037 
	C143.825226,214.560165 143.646896,214.056885 143.364700,213.308441 
	C143.233856,212.592026 143.206863,212.120758 143.291412,210.946411 
	C143.347183,207.852188 143.291443,205.461060 143.235718,203.069946 
	C143.222290,202.591446 143.208862,202.112961 143.277023,201.040100 
	C143.305984,199.641617 143.253372,198.837509 143.200760,198.033386 
	C143.196503,197.567810 143.192245,197.102219 143.241333,196.178284 
	C143.329498,195.489059 143.307983,195.263535 143.230118,195.043304 
	C143.217484,189.314209 143.204849,183.585114 143.281967,177.200867 
	C143.330673,176.047394 143.289612,175.549088 143.248566,175.050781 
	C143.214417,173.623428 143.180283,172.196075 143.291870,170.009201 
	C143.372269,167.191910 143.306931,165.134155 143.241608,163.076385 
	C143.235519,161.641403 143.229431,160.206406 143.274872,158.232742 
	C143.341110,157.465225 143.298035,157.247635 143.197205,157.041260 
	C143.274033,150.549271 143.350861,144.057281 143.692688,137.228775 
	C144.297043,139.003403 144.923645,141.113495 144.931427,143.225861 
	C145.011337,164.943283 145.009399,186.661102 144.967453,208.378708 
	C144.963654,210.344452 144.521957,212.309341 144.143585,214.669037 
z"/>
<path fill="#082A3B" opacity="1.000000" stroke="none" 
	d="
M156.653961,76.853424 
	C152.530869,75.819206 148.358704,74.128067 144.023376,73.194778 
	C136.623550,71.601776 130.067307,74.786026 123.162369,77.704041 
	C124.842087,76.198936 126.653351,73.976181 128.963226,73.153664 
	C138.620438,69.714859 148.140182,68.963966 156.653961,76.853424 
z"/>
<path fill="#143645" opacity="1.000000" stroke="none" 
	d="
M143.166840,203.502060 
	C143.291443,205.461060 143.347183,207.852188 143.297546,210.592285 
	C143.160782,208.605576 143.129379,206.269882 143.166840,203.502060 
z"/>
<path fill="#143645" opacity="1.000000" stroke="none" 
	d="
M143.190659,163.501404 
	C143.306931,165.134155 143.372269,167.191910 143.333984,169.582458 
	C143.200165,167.918976 143.169937,165.922699 143.190659,163.501404 
z"/>
<path fill="#143645" opacity="1.000000" stroke="none" 
	d="
M143.147522,198.392670 
	C143.253372,198.837509 143.305984,199.641617 143.297073,200.681519 
	C143.188461,200.195496 143.141373,199.473724 143.147522,198.392670 
z"/>
<path fill="#143645" opacity="1.000000" stroke="none" 
	d="
M143.215637,175.361053 
	C143.289612,175.549088 143.330673,176.047394 143.325775,176.729126 
	C143.247437,176.498810 143.215073,176.085068 143.215637,175.361053 
z"/>
<path fill="#143645" opacity="1.000000" stroke="none" 
	d="
M143.206299,195.267426 
	C143.307983,195.263535 143.329498,195.489059 143.263687,195.829712 
	C143.232712,195.939499 143.182495,195.491531 143.206299,195.267426 
z"/>
<path fill="#143645" opacity="1.000000" stroke="none" 
	d="
M143.198883,157.260803 
	C143.298035,157.247635 143.341110,157.465225 143.304199,157.802948 
	C143.281982,157.911850 143.200546,157.480362 143.198883,157.260803 
z"/>
<path fill="#000000" opacity="1.000000" stroke="none" 
	d="
M127.856995,84.923309 
	C128.960861,84.303497 130.064728,83.683678 131.598602,83.418571 
	C134.075226,87.231552 136.121857,90.689819 138.750320,95.131248 
	C140.153839,92.725151 140.786591,91.640411 141.419342,90.555679 
	C141.419327,90.555672 141.546936,90.469963 141.817078,90.219070 
	C142.686752,88.622330 143.286301,87.276482 143.885834,85.930634 
	C143.885834,85.930626 143.938324,85.966087 144.179596,85.762711 
	C145.327591,84.426613 146.234314,83.293900 147.141037,82.161179 
	C149.000900,83.225288 150.860748,84.289406 152.569824,85.841209 
	C150.990845,88.915222 149.562637,91.501541 148.134430,94.087852 
	C148.134430,94.087852 148.034943,94.038635 147.800079,94.200485 
	C146.762177,95.470703 145.959167,96.579071 144.661591,98.370056 
	C146.703232,98.595367 147.890213,98.726357 149.077209,98.857353 
	C148.525543,101.098549 147.973892,103.339752 147.263519,106.225777 
	C147.664917,106.900490 148.651398,108.558662 149.637878,110.216843 
	C148.074326,110.838623 146.362595,111.237732 144.992172,112.149727 
	C143.808502,112.937462 143.081512,114.379013 142.027267,115.402390 
	C140.875488,116.520439 139.579636,117.490089 138.109406,117.870636 
	C139.112473,111.811203 134.958755,110.942474 130.076111,109.663437 
	C132.120422,108.684044 133.046707,108.240288 134.328979,107.812767 
	C135.650528,107.168266 136.616104,106.507523 137.581680,105.846786 
	C136.951385,105.059578 136.321106,104.272354 135.690811,103.485138 
	C134.376099,103.379623 133.055130,103.323555 131.747910,103.158691 
	C128.653259,102.768417 128.714310,101.215157 130.907150,98.944344 
	C132.224503,97.728821 133.809906,96.244789 133.547272,95.758156 
	C132.273148,93.397339 130.503387,91.304016 128.909210,89.115929 
	C128.909210,89.115929 128.892014,89.082451 128.845764,88.721268 
	C128.485336,87.214493 128.171158,86.068909 127.856995,84.923309 
z"/>
<path fill="#082B3F" opacity="1.000000" stroke="none" 
	d="
M133.972977,107.796532 
	C133.046707,108.240288 132.120422,108.684044 130.076111,109.663437 
	C134.958755,110.942474 139.112473,111.811203 137.836426,117.638687 
	C136.091324,116.360237 134.362259,114.679176 132.679779,112.952721 
	C131.608673,111.853630 130.606689,110.687195 129.573700,109.550964 
	C130.818268,108.422729 132.062851,107.294502 133.653641,106.401833 
	C133.990906,107.023773 133.981949,107.410156 133.972977,107.796532 
z"/>
<path fill="#082A3B" opacity="1.000000" stroke="none" 
	d="
M141.093536,90.480057 
	C140.786591,91.640411 140.153839,92.725151 138.750320,95.131248 
	C136.121857,90.689819 134.075226,87.231552 131.934113,83.433914 
	C133.324997,84.483009 134.748001,85.947166 136.314316,87.237373 
	C137.716766,88.392632 139.277054,89.356255 141.093536,90.480057 
z"/>
<path fill="#092939" opacity="1.000000" stroke="none" 
	d="
M128.956696,89.468292 
	C130.503387,91.304016 132.273148,93.397339 133.547272,95.758156 
	C133.809906,96.244789 132.224503,97.728821 131.169434,98.698441 
	C130.233414,95.702713 129.618805,92.761688 128.956696,89.468292 
z"/>
<path fill="#092639" opacity="1.000000" stroke="none" 
	d="
M148.425415,93.938591 
	C149.562637,91.501541 150.990845,88.915222 152.705444,86.143440 
	C151.566696,88.568428 150.141541,91.178879 148.425415,93.938591 
z"/>
<path fill="#092639" opacity="1.000000" stroke="none" 
	d="
M149.023621,98.513748 
	C147.890213,98.726357 146.703232,98.595367 144.661591,98.370056 
	C145.959167,96.579071 146.762177,95.470703 147.846024,94.232742 
	C148.407913,95.458817 148.688980,96.814476 149.023621,98.513748 
z"/>
<path fill="#092939" opacity="1.000000" stroke="none" 
	d="
M134.328979,107.812767 
	C133.981949,107.410156 133.990906,107.023773 134.007172,106.348206 
	C134.527390,105.369469 135.040298,104.679909 135.622009,103.737747 
	C136.321106,104.272354 136.951385,105.059578 137.581680,105.846786 
	C136.616104,106.507523 135.650528,107.168266 134.328979,107.812767 
z"/>
<path fill="#082A3B" opacity="1.000000" stroke="none" 
	d="
M146.873779,82.173714 
	C146.234314,83.293900 145.327591,84.426613 144.164154,85.735229 
	C144.807159,84.669502 145.706848,83.427872 146.873779,82.173714 
z"/>
<path fill="#082A3B" opacity="1.000000" stroke="none" 
	d="
M143.612122,86.103813 
	C143.286301,87.276482 142.686752,88.622330 141.836456,90.144699 
	C142.169937,88.973145 142.754166,87.625069 143.612122,86.103813 
z"/>
<path fill="#092939" opacity="1.000000" stroke="none" 
	d="
M127.693336,85.111168 
	C128.171158,86.068909 128.485336,87.214493 128.827972,88.715164 
	C128.414169,87.813171 127.971924,86.556091 127.693336,85.111168 
z"/>
</svg>